# xmcd
#
# Track frame offsets:
#	150
#	22642
#	42486
#	61428
#	84975
#	100046
#	142459
#	158921
#	200978
#	227949
#	245876
#	265933
#	284252
#	307443
#
# Disc length: 4789 seconds
#
# Revision: 0
# Processed by: cddbd v1.5.2PL0 Copyright (c) Steve Scherf et al.
# Submitted via: EZCDAudioConverter 1.3.4.1
#
DISCID=d712b30e
DTITLE=Orchestre Poly-Rythmo De Cotonou - Echos Hypnotiques
DYEAR=1900
DGENRE=
TTITLE0=Se Ba Ho
TTITLE1=Mi Ve Wa Se
TTITLE2=Azon De Ma Gnin Kpevi
TTITLE3=Noude Ma Gnin Tche De Me
TTITLE4=Ahouli Vou Yelli
TTITLE5=Gan Tche Kpo
TTITLE6=Malin Kpon O
TTITLE7=Mede Ma Gnin Messe
TTITLE8=Agnon Dekpe
TTITLE9=Zizi
TTITLE10=Ma Dou Sou Nou Mio
TTITLE11=Koutomé
TTITLE12=Houe Djein Nada
TTITLE13=Minkou E So Non Moin
EXTD=
EXTT0=
EXTT1=
EXTT2=
EXTT3=
EXTT4=
EXTT5=
EXTT6=
EXTT7=
EXTT8=
EXTT9=
EXTT10=
EXTT11=
EXTT12=
EXTT13=
PLAYORDER=
